# Blender 3.6.2
# www.blender.org
mtllib Closet.mtl
o Closet
v 0.250000 1.991905 -0.463838
v 0.250000 0.064231 -0.463838
v 0.250000 1.991905 0.463838
v 0.250000 0.064231 0.463838
v -0.250000 2.028068 -0.500000
v -0.250000 0.028068 -0.500000
v -0.250000 2.028068 0.500000
v -0.250000 0.028068 0.500000
v 0.250000 2.028068 -0.500000
v 0.250000 0.028068 -0.500000
v 0.250000 2.028068 0.500000
v 0.250000 0.028068 0.500000
v -0.225065 1.991905 -0.463838
v -0.225065 0.064231 -0.463838
v -0.225065 1.991905 0.463838
v -0.225065 0.064231 0.463838
v -0.225065 0.418779 0.485268
v -0.225065 0.451961 0.485268
v -0.225065 0.418779 -0.485268
v -0.225065 0.451961 -0.485268
v 0.246841 0.418779 0.485268
v 0.246841 0.451961 0.485268
v 0.246841 0.418779 -0.485268
v 0.246841 0.451961 -0.485268
v -0.225065 0.816959 0.485268
v -0.225065 0.850141 0.485268
v -0.225065 0.816959 -0.485268
v -0.225065 0.850141 -0.485268
v 0.246841 0.816959 0.485268
v 0.246841 0.850141 0.485268
v 0.246841 0.816959 -0.485268
v 0.246841 0.850141 -0.485268
v -0.225065 1.215140 0.485268
v -0.225065 1.248321 0.485268
v -0.225065 1.215140 -0.485268
v -0.225065 1.248321 -0.485268
v 0.246841 1.215140 0.485268
v 0.246841 1.248321 0.485268
v 0.246841 1.215140 -0.485268
v 0.246841 1.248321 -0.485268
v -0.225065 1.613320 0.485268
v -0.225065 1.646502 0.485268
v -0.225065 1.613320 -0.485268
v -0.225065 1.646502 -0.485268
v 0.246841 1.613320 0.485268
v 0.246841 1.646502 0.485268
v 0.246841 1.613320 -0.485268
v 0.246841 1.646502 -0.485268
v 0.173741 -0.000919 0.477411
v 0.173741 0.030835 0.477411
v 0.173741 -0.000919 0.423816
v 0.173741 0.030835 0.423816
v 0.227336 -0.000919 0.477411
v 0.227336 0.030835 0.477411
v 0.227336 -0.000919 0.423816
v 0.227336 0.030835 0.423816
v -0.173741 -0.000919 0.477411
v -0.173741 0.030835 0.477411
v -0.173741 -0.000919 0.423816
v -0.173741 0.030835 0.423816
v -0.227336 -0.000919 0.477411
v -0.227336 0.030835 0.477411
v -0.227336 -0.000919 0.423816
v -0.227336 0.030835 0.423816
v 0.173741 -0.000919 -0.477411
v 0.173741 0.030835 -0.477411
v 0.173741 -0.000919 -0.423816
v 0.173741 0.030835 -0.423816
v 0.227336 -0.000919 -0.477411
v 0.227336 0.030835 -0.477411
v 0.227336 -0.000919 -0.423816
v 0.227336 0.030835 -0.423816
v -0.173741 -0.000919 -0.477411
v -0.173741 0.030835 -0.477411
v -0.173741 -0.000919 -0.423816
v -0.173741 0.030835 -0.423816
v -0.227336 -0.000919 -0.477411
v -0.227336 0.030835 -0.477411
v -0.227336 -0.000919 -0.423816
v -0.227336 0.030835 -0.423816
vn -0.0000 1.0000 -0.0000
vn -0.0000 -0.0000 1.0000
vn -1.0000 -0.0000 -0.0000
vn -0.0000 -1.0000 -0.0000
vn -0.0000 -0.0000 -1.0000
vn 1.0000 -0.0000 -0.0000
vt 0.126145 0.752676
vt 0.001657 0.752676
vt 0.001657 0.503700
vt 0.126145 0.503700
vt 0.250628 0.499604
vt 0.250628 0.001651
vt 0.375116 0.001651
vt 0.375116 0.499604
vt 0.378419 0.499604
vt 0.378419 0.001651
vt 0.627395 0.001651
vt 0.627395 0.499604
vt 0.138454 0.263840
vt 0.013966 0.263840
vt 0.013966 0.014864
vt 0.138454 0.014864
vt 0.001654 0.987894
vt 0.001654 0.756926
vt 0.119934 0.756926
vt 0.119934 0.987894
vt 0.630699 0.984036
vt 0.630699 0.486083
vt 0.755187 0.486083
vt 0.755187 0.984036
vt 0.010655 0.010655
vt 0.010655 0.490600
vt 0.001652 0.499604
vt 0.001652 0.001651
vt 0.241624 0.490600
vt 0.241624 0.010655
vt 0.630699 0.481597
vt 0.630699 0.001652
vt 0.861668 0.001652
vt 0.861668 0.481597
vt 0.758490 0.966029
vt 0.758490 0.486083
vt 0.876770 0.486083
vt 0.876770 0.966029
vt 0.998349 0.486083
vt 0.998349 0.717052
vt 0.880069 0.717052
vt 0.880069 0.486083
vt 0.983246 0.001657
vt 0.983246 0.481602
vt 0.864966 0.481602
vt 0.864966 0.001657
vt 0.994810 0.243292
vt 0.986549 0.243292
vt 0.986549 0.001652
vt 0.994810 0.001652
vt 0.246941 0.991960
vt 0.129447 0.991960
vt 0.129447 0.750319
vt 0.246941 0.750319
vt 0.367737 0.745340
vt 0.250244 0.745340
vt 0.250244 0.503700
vt 0.367737 0.503700
vt 0.161587 0.256501
vt 0.153325 0.256501
vt 0.153325 0.014860
vt 0.161587 0.014860
vt 0.609341 0.991956
vt 0.491847 0.991956
vt 0.491847 0.750316
vt 0.609341 0.750316
vt 0.488537 0.991956
vt 0.371044 0.991956
vt 0.371044 0.750316
vt 0.488537 0.750316
vt 0.219393 0.256501
vt 0.211131 0.256501
vt 0.211131 0.014860
vt 0.219393 0.014860
vt 0.488537 0.745339
vt 0.371044 0.745339
vt 0.371044 0.503699
vt 0.488537 0.503699
vt 0.367737 0.991956
vt 0.250244 0.991956
vt 0.250244 0.750316
vt 0.367737 0.750316
vt 0.173154 0.256504
vt 0.164893 0.256504
vt 0.164893 0.014864
vt 0.173154 0.014864
vt 0.609337 0.745344
vt 0.491844 0.745344
vt 0.491844 0.503704
vt 0.609337 0.503704
vt 0.246938 0.745341
vt 0.129444 0.745341
vt 0.129444 0.503701
vt 0.246938 0.503701
vt 0.067057 0.299050
vt 0.059151 0.299050
vt 0.059151 0.285706
vt 0.067057 0.285706
vt 0.050077 0.281434
vt 0.042171 0.281434
vt 0.042171 0.268090
vt 0.050077 0.268090
vt 0.229196 0.288040
vt 0.221290 0.288040
vt 0.221290 0.274696
vt 0.229196 0.274696
vt 0.033431 0.299050
vt 0.025524 0.299050
vt 0.025524 0.285706
vt 0.033431 0.285706
vt 0.201339 0.265888
vt 0.201339 0.279232
vt 0.187995 0.279232
vt 0.187995 0.265888
vt 0.061286 0.268090
vt 0.061286 0.281434
vt 0.053380 0.281434
vt 0.053380 0.268090
vt 0.072493 0.268090
vt 0.072493 0.281434
vt 0.064586 0.281434
vt 0.064586 0.268090
vt 0.195902 0.283504
vt 0.195902 0.296848
vt 0.187995 0.296848
vt 0.187995 0.283504
vt 0.083702 0.268090
vt 0.083702 0.281434
vt 0.075796 0.281434
vt 0.075796 0.268090
vt 0.038868 0.281434
vt 0.025524 0.281434
vt 0.025524 0.268090
vt 0.038868 0.268090
vt 0.094910 0.268090
vt 0.094910 0.281434
vt 0.087004 0.281434
vt 0.087004 0.268090
vt 0.106120 0.268090
vt 0.106120 0.281434
vt 0.098214 0.281434
vt 0.098214 0.268090
vt 0.117328 0.268090
vt 0.117328 0.281434
vt 0.109422 0.281434
vt 0.109422 0.268090
vt 0.078264 0.285706
vt 0.078264 0.299050
vt 0.070358 0.299050
vt 0.070358 0.285706
vt 0.204643 0.265888
vt 0.217987 0.265888
vt 0.217987 0.279232
vt 0.204643 0.279232
vt 0.128535 0.281434
vt 0.120629 0.281434
vt 0.120629 0.268090
vt 0.128535 0.268090
vt 0.044638 0.299050
vt 0.036732 0.299050
vt 0.036732 0.285706
vt 0.044638 0.285706
vt 0.055846 0.299050
vt 0.047940 0.299050
vt 0.047940 0.285706
vt 0.055846 0.285706
vt 0.207110 0.296848
vt 0.199204 0.296848
vt 0.199204 0.283504
vt 0.207110 0.283504
vt 0.222699 0.270424
vt 0.222699 0.257080
vt 0.236043 0.257080
vt 0.236043 0.270424
s 1
usemtl Material.005
f 9/1/1 5/2/1 7/3/1 11/4/1
f 12/5/2 11/6/2 7/7/2 8/8/2
f 8/9/3 7/10/3 5/11/3 6/12/3
f 6/13/4 10/14/4 12/15/4 8/16/4
f 1/17/4 3/18/4 15/19/4 13/20/4
f 6/21/5 5/22/5 9/23/5 10/24/5
f 1/25/6 2/26/6 10/27/6 9/28/6
f 4/29/6 3/30/6 11/6/6 12/5/6
f 3/30/6 1/25/6 9/28/6 11/6/6
f 2/26/6 4/29/6 12/5/6 10/27/6
f 14/31/6 13/32/6 15/33/6 16/34/6
f 2/35/2 1/36/2 13/37/2 14/38/2
f 4/39/1 2/40/1 14/41/1 16/42/1
f 3/43/5 4/44/5 16/45/5 15/46/5
f 23/47/6 24/48/6 22/49/6 21/50/6
f 19/51/4 23/52/4 21/53/4 17/54/4
f 24/55/1 20/56/1 18/57/1 22/58/1
f 31/59/6 32/60/6 30/61/6 29/62/6
f 27/63/4 31/64/4 29/65/4 25/66/4
f 32/67/1 28/68/1 26/69/1 30/70/1
f 39/71/6 40/72/6 38/73/6 37/74/6
f 35/75/4 39/76/4 37/77/4 33/78/4
f 40/79/1 36/80/1 34/81/1 38/82/1
f 47/83/6 48/84/6 46/85/6 45/86/6
f 43/87/4 47/88/4 45/89/4 41/90/4
f 48/91/1 44/92/1 42/93/1 46/94/1
s 0
f 49/95/3 50/96/3 52/97/3 51/98/3
f 51/99/5 52/100/5 56/101/5 55/102/5
f 55/103/6 56/104/6 54/105/6 53/106/6
f 53/107/2 54/108/2 50/109/2 49/110/2
f 51/111/4 55/112/4 53/113/4 49/114/4
f 57/115/6 59/116/6 60/117/6 58/118/6
f 59/119/5 63/120/5 64/121/5 60/122/5
f 63/123/3 61/124/3 62/125/3 64/126/3
f 61/127/2 57/128/2 58/129/2 62/130/2
f 59/131/4 57/132/4 61/133/4 63/134/4
f 65/135/3 67/136/3 68/137/3 66/138/3
f 67/139/2 71/140/2 72/141/2 68/142/2
f 71/143/6 69/144/6 70/145/6 72/146/6
f 69/147/5 65/148/5 66/149/5 70/150/5
f 67/151/4 65/152/4 69/153/4 71/154/4
f 73/155/6 74/156/6 76/157/6 75/158/6
f 75/159/2 76/160/2 80/161/2 79/162/2
f 79/163/3 80/164/3 78/165/3 77/166/3
f 77/167/5 78/168/5 74/169/5 73/170/5
f 75/171/4 79/172/4 77/173/4 73/174/4
